REM DIRINDEX 1\2,1\3,1\4,1\5\6,1\5\7,1\8
REM DIRNAME folder01,folder02,folder03,folder04,folder05,folder06,folder07,folder08
TITLE ""
FILE "126 【126】Unit7 (1429 nurture_1440 meditate).mp3" MP3
  TRACK 01 AUDIO
    TITLE "0:"
    INDEX 01 00:00:00
  TRACK 02 AUDIO
    TITLE "2:cjc115_4902"
    INDEX 01 00:00:07
  TRACK 03 AUDIO
    TITLE "0:"
    INDEX 01 00:01:21
  TRACK 04 AUDIO
    TITLE "3:cjc115_4903"
    INDEX 01 00:01:22
  TRACK 05 AUDIO
    TITLE "0:"
    INDEX 01 00:02:67
  TRACK 06 AUDIO
    TITLE "4:cjc115_4904"
    INDEX 01 00:03:00
  TRACK 07 AUDIO
    TITLE "0:"
    INDEX 01 00:06:04
  TRACK 08 AUDIO
    TITLE "2:cjc115_4905"
    INDEX 01 00:07:13
  TRACK 09 AUDIO
    TITLE "0:"
    INDEX 01 00:08:26
  TRACK 10 AUDIO
    TITLE "3:cjc115_4906"
    INDEX 01 00:08:32
  TRACK 11 AUDIO
    TITLE "0:"
    INDEX 01 00:12:46
  TRACK 12 AUDIO
    TITLE "4:cjc115_4907"
    INDEX 01 00:12:54
  TRACK 13 AUDIO
    TITLE "0:"
    INDEX 01 00:15:58
  TRACK 14 AUDIO
    TITLE "2:cjc115_4908"
    INDEX 01 00:16:69
  TRACK 15 AUDIO
    TITLE "0:"
    INDEX 01 00:18:13
  TRACK 16 AUDIO
    TITLE "3:cjc115_4909"
    INDEX 01 00:18:21
  TRACK 17 AUDIO
    TITLE "0:"
    INDEX 01 00:19:30
  TRACK 18 AUDIO
    TITLE "4:cjc115_4910"
    INDEX 01 00:19:38
  TRACK 19 AUDIO
    TITLE "0:"
    INDEX 01 00:23:73
  TRACK 20 AUDIO
    TITLE "2:cjc115_4911"
    INDEX 01 00:25:05
  TRACK 21 AUDIO
    TITLE "0:"
    INDEX 01 00:26:22
  TRACK 22 AUDIO
    TITLE "3:cjc115_4912"
    INDEX 01 00:26:30
  TRACK 23 AUDIO
    TITLE "0:"
    INDEX 01 00:28:27
  TRACK 24 AUDIO
    TITLE "4:cjc115_4913"
    INDEX 01 00:28:29
  TRACK 25 AUDIO
    TITLE "0:"
    INDEX 01 00:32:09
  TRACK 26 AUDIO
    TITLE "2:cjc115_4914"
    INDEX 01 00:33:21
  TRACK 27 AUDIO
    TITLE "0:"
    INDEX 01 00:34:34
  TRACK 28 AUDIO
    TITLE "3:cjc115_4915"
    INDEX 01 00:34:43
  TRACK 29 AUDIO
    TITLE "0:"
    INDEX 01 00:35:63
  TRACK 30 AUDIO
    TITLE "4:cjc115_4916"
    INDEX 01 00:35:70
  TRACK 31 AUDIO
    TITLE "0:"
    INDEX 01 00:39:51
  TRACK 32 AUDIO
    TITLE "2:cjc115_4917"
    INDEX 01 00:40:60
  TRACK 33 AUDIO
    TITLE "0:"
    INDEX 01 00:42:18
  TRACK 34 AUDIO
    TITLE "3:cjc115_4918"
    INDEX 01 00:42:23
  TRACK 35 AUDIO
    TITLE "0:"
    INDEX 01 00:44:46
  TRACK 36 AUDIO
    TITLE "4:cjc115_4919"
    INDEX 01 00:44:54
  TRACK 37 AUDIO
    TITLE "0:"
    INDEX 01 00:48:10
  TRACK 38 AUDIO
    TITLE "2:cjc115_4920"
    INDEX 01 00:49:21
  TRACK 39 AUDIO
    TITLE "0:"
    INDEX 01 00:50:44
  TRACK 40 AUDIO
    TITLE "3:cjc115_4921"
    INDEX 01 00:50:54
  TRACK 41 AUDIO
    TITLE "0:"
    INDEX 01 00:52:30
  TRACK 42 AUDIO
    TITLE "4:cjc115_4922"
    INDEX 01 00:52:37
  TRACK 43 AUDIO
    TITLE "0:"
    INDEX 01 00:57:07
  TRACK 44 AUDIO
    TITLE "2:cjc115_4923"
    INDEX 01 00:58:17
  TRACK 45 AUDIO
    TITLE "0:"
    INDEX 01 00:59:47
  TRACK 46 AUDIO
    TITLE "3:cjc115_4924"
    INDEX 01 00:59:55
  TRACK 47 AUDIO
    TITLE "0:"
    INDEX 01 01:03:10
  TRACK 48 AUDIO
    TITLE "4:cjc115_4925"
    INDEX 01 01:03:18
  TRACK 49 AUDIO
    TITLE "0:"
    INDEX 01 01:06:42
  TRACK 50 AUDIO
    TITLE "2:cjc115_4926"
    INDEX 01 01:07:49
  TRACK 51 AUDIO
    TITLE "0:"
    INDEX 01 01:09:09
  TRACK 52 AUDIO
    TITLE "3:cjc115_4927"
    INDEX 01 01:09:12
  TRACK 53 AUDIO
    TITLE "0:"
    INDEX 01 01:10:30
  TRACK 54 AUDIO
    TITLE "4:cjc115_4928"
    INDEX 01 01:10:35
  TRACK 55 AUDIO
    TITLE "0:"
    INDEX 01 01:14:57
  TRACK 56 AUDIO
    TITLE "2:cjc115_4929"
    INDEX 01 01:15:68
  TRACK 57 AUDIO
    TITLE "0:"
    INDEX 01 01:17:12
  TRACK 58 AUDIO
    TITLE "3:cjc115_4930"
    INDEX 01 01:17:24
  TRACK 59 AUDIO
    TITLE "0:"
    INDEX 01 01:19:70
  TRACK 60 AUDIO
    TITLE "4:cjc115_4931"
    INDEX 01 01:20:00
  TRACK 61 AUDIO
    TITLE "0:"
    INDEX 01 01:23:46
  TRACK 62 AUDIO
    TITLE "2:cjc115_4932"
    INDEX 01 01:24:59
  TRACK 63 AUDIO
    TITLE "0:"
    INDEX 01 01:26:13
  TRACK 64 AUDIO
    TITLE "3:cjc115_4933"
    INDEX 01 01:26:23
  TRACK 65 AUDIO
    TITLE "0:"
    INDEX 01 01:27:63
  TRACK 66 AUDIO
    TITLE "4:cjc115_4934"
    INDEX 01 01:28:06
  TRACK 67 AUDIO
    TITLE "0:"
    INDEX 01 01:32:49
  TRACK 68 AUDIO
    TITLE "2:cjc115_4935"
    INDEX 01 01:33:58
  TRACK 69 AUDIO
    TITLE "0:"
    INDEX 01 01:35:00
  TRACK 70 AUDIO
    TITLE "3:cjc115_4936"
    INDEX 01 01:35:10
  TRACK 71 AUDIO
    TITLE "0:"
    INDEX 01 01:36:33
  TRACK 72 AUDIO
    TITLE "4:cjc115_4937"
    INDEX 01 01:36:43
  TRACK 73 AUDIO
    TITLE "0:"
    INDEX 01 01:39:39
